{"title":"Sacrifice 2011 DVDrip English Klam","uid":6401225,"size":1541243243,"categoryP":"video","categoryS":"movies","magnet":"?xt=urn:btih:c170674655391f2e072b73790cde5f21e09d7156&amp;dn=Sacrifice+2011+DVDrip+English+Klam&amp;tr=udp%3A%2F%2Ftracker.openbittorrent.com%3A80&amp;tr=udp%3A%2F%2Fopen.demonii.com%3A1337&amp;tr=udp%3A%2F%2Ftracker.coppersurfer.tk%3A6969&amp;tr=udp%3A%2F%2Fexodus.desync.com%3A6969","seeders":0,"leechers":2,"uploader":"Klambake","files":-1,"time":1305669476,"description":"With: Cuba Gooding Jr., Christian Slater and Devon Bostick\n\nDrugsdealer Mike probeert zichzelf en zijn 5-jarige dochtertje Angel uit de gevaarlijke heroÃƒÂ¯nehandel te halen en schakelt hiervoor de hulp in van de undercoveragent John Hebron. Terwijl hij het leven van zijn zus probeert te redden, komt Mike om het leven met het gevolg dat Angel bij John terecht komt. De drugsbazen ontvoeren haar en dreigen haar te vermoorden als John hen niet helpt. John moet tegen zijn geweten in gaan en alles gebruiken wat hij ooit in de geheime dienst geleerd heeft om het meisje te redden voor het te laat is.\n\nA tough undercover cop inadvertently gets involved in a dangerous heroin ring when a young defector of the drug trade leaves his five year-old sister in his care. \n\nGeneral:\n\nComplete name                    : Sacrifice\\Sacrifice.avi\nFormat                           : AVI\nFormat/Info                      : Audio Video Interleave\nFile size                        : 1.43 GiB\nDuration                         : 1h 39mn\nOverall bit rate                 : 2 064 Kbps\n\nVideo:\n\nFormat                           : MPEG-4 Visual\nFormat profile                   : Simple@L3\nFormat settings, BVOP            : No\nFormat settings, QPel            : No\nFormat settings, GMC             : No warppoints\nFormat settings, Matrix          : Default (H.263)\nCodec ID                         : XVID\nCodec ID/Hint                    : XviD\nDuration                         : 1h 39mn\nBit rate                         : 1 732 Kbps\nWidth                            : 720 pixels\nHeight                           : 304 pixels\nDisplay aspect ratio             : 2.35:1\nFrame rate                       : 29.970 fps\nColor space                      : YUV\nChroma subsampling               : 4:2:0\nBit depth                        : 8 bits\nScan type                        : Progressive\nBits/(Pixel*Frame)               : 0.264\nStream size                      : 1.20 GiB (84%)\nWriting library                  : XviD 1.1.2 (UTC 2006-11-01)\n\nAudio:\n\nFormat                           : AC-3\nFormat/Info                      : Audio Coding 3\nMode extension                   : CM (complete main)\nCodec ID                         : 2000\nDuration                         : 1h 39mn\nBit rate mode                    : Constant\nBit rate                         : 320 Kbps\nChannel(s)                       : 6 channels\nChannel positions                : Front: L C R, Side: L R, LFE\nSampling rate                    : 48.0 KHz\nBit depth                        : 16 bits\nStream size                      : 228 MiB (16%)\nAlignment                        : Aligned on interleaves\nInterleave, duration             : 32 ms (0.96 video frame)\nInterleave, preload duration     : 64 ms\n\n\n","torrent":{"xt":"urn:btih:c170674655391f2e072b73790cde5f21e09d7156","amp;dn":"Sacrifice+2011+DVDrip+English+Klam","amp;tr":["udp%3A%2F%2Ftracker.openbittorrent.com%3A80","udp%3A%2F%2Fopen.demonii.com%3A1337","udp%3A%2F%2Ftracker.coppersurfer.tk%3A6969","udp%3A%2F%2Fexodus.desync.com%3A6969"],"infoHash":"c170674655391f2e072b73790cde5f21e09d7156","infoHashBuffer":{"type":"Buffer","data":[193,112,103,70,85,57,31,46,7,43,115,121,12,222,95,33,224,157,113,86]},"announce":[],"urlList":[]}}